<svg xmlns="http://www.w3.org/2000/svg" xmlns:xlink="http://www.w3.org/1999/xlink" width="150" zoomAndPan="magnify" viewBox="0 0 112.5 112.499997" height="150" preserveAspectRatio="xMidYMid meet" version="1.0"><defs><clipPath id="38be77356b"><path d="M 0 0 L 112.003906 0 L 112.003906 112.003906 L 0 112.003906 Z M 0 0 " clip-rule="nonzero"/></clipPath><clipPath id="920fa9af2d"><path d="M 56 0 C 25.074219 0 0 25.074219 0 56 C 0 86.929688 25.074219 112.003906 56 112.003906 C 86.929688 112.003906 112.003906 86.929688 112.003906 56 C 112.003906 25.074219 86.929688 0 56 0 Z M 56 0 " clip-rule="nonzero"/></clipPath><clipPath id="af5c93098f"><path d="M 22.5625 21.214844 L 89.761719 21.214844 L 89.761719 90.65625 L 22.5625 90.65625 Z M 22.5625 21.214844 " clip-rule="nonzero"/></clipPath></defs><g clip-path="url(#38be77356b)"><g clip-path="url(#920fa9af2d)"><path fill="#2e70d4" d="M 0 0 L 112.003906 0 L 112.003906 112.003906 L 0 112.003906 Z M 0 0 " fill-opacity="1" fill-rule="nonzero"/></g></g><g clip-path="url(#af5c93098f)"><path fill="#ffffff" d="M 86.875 21.425781 L 83.871094 23.480469 C 68.167969 34.21875 52.085938 56.453125 44.0625 74.527344 C 42.824219 72.792969 42.449219 72.21875 41.25 70.289062 C 36.34375 63.667969 30.125 57.984375 27.171875 55.882812 L 22.5625 57.8125 L 22.707031 58.085938 C 25.890625 61.566406 31.476562 69.296875 39.898438 86.332031 C 40.414062 87.066406 40.964844 87.789062 41.589844 88.464844 C 43.238281 90.226562 44.929688 90.597656 46.054688 90.597656 C 46.058594 90.597656 46.058594 90.597656 46.058594 90.597656 C 49.269531 90.597656 51.167969 88.0625 52.472656 85.09375 C 60.902344 53.808594 80.832031 32.269531 89.449219 24.894531 Z M 86.875 21.425781 " fill-opacity="1" fill-rule="nonzero"/></g></svg>