<svg xmlns="http://www.w3.org/2000/svg" xmlns:xlink="http://www.w3.org/1999/xlink" width="150" zoomAndPan="magnify" viewBox="0 0 112.5 112.499997" height="150" preserveAspectRatio="xMidYMid meet" version="1.0"><defs><clipPath id="3e67cef530"><path d="M 0 0 L 112.003906 0 L 112.003906 112.003906 L 0 112.003906 Z M 0 0 " clip-rule="nonzero"/></clipPath><clipPath id="78a8cf25d5"><path d="M 56 0 C 25.074219 0 0 25.074219 0 56 C 0 86.929688 25.074219 112.003906 56 112.003906 C 86.929688 112.003906 112.003906 86.929688 112.003906 56 C 112.003906 25.074219 86.929688 0 56 0 Z M 56 0 " clip-rule="nonzero"/></clipPath><clipPath id="14f9579dcd"><path d="M 12 29.753906 L 32 29.753906 L 32 61 L 12 61 Z M 12 29.753906 " clip-rule="nonzero"/></clipPath><clipPath id="6b8cf31daa"><path d="M 49 75.480469 L 55.898438 75.480469 L 55.898438 82.019531 L 49 82.019531 Z M 49 75.480469 " clip-rule="nonzero"/></clipPath><clipPath id="862fed9e4e"><path d="M 80 29.753906 L 100 29.753906 L 100 61 L 80 61 Z M 80 29.753906 " clip-rule="nonzero"/></clipPath><clipPath id="ece571d9f4"><path d="M 25 34 L 79.757812 34 L 79.757812 82.019531 L 25 82.019531 Z M 25 34 " clip-rule="nonzero"/></clipPath></defs><g clip-path="url(#3e67cef530)"><g clip-path="url(#78a8cf25d5)"><path fill="#2e70d4" d="M 0 0 L 112.003906 0 L 112.003906 112.003906 L 0 112.003906 Z M 0 0 " fill-opacity="1" fill-rule="nonzero"/></g></g><g clip-path="url(#14f9579dcd)"><path fill="#ffffff" d="M 24.101562 59.847656 L 31.203125 33.363281 C 31.277344 33.070312 31.109375 32.765625 30.8125 32.679688 L 19.949219 29.777344 C 19.652344 29.699219 19.347656 29.871094 19.273438 30.164062 L 12.179688 56.648438 C 12.09375 56.945312 12.273438 57.246094 12.5625 57.332031 L 23.425781 60.238281 C 23.722656 60.3125 24.023438 60.144531 24.101562 59.847656 " fill-opacity="1" fill-rule="nonzero"/></g><path fill="#ffffff" d="M 46.960938 71.699219 L 44.25 74.417969 C 43.183594 75.519531 43.222656 77.277344 44.328125 78.339844 C 45.398438 79.367188 47.097656 79.367188 48.171875 78.339844 L 50.882812 75.621094 C 51.945312 74.519531 51.90625 72.765625 50.804688 71.699219 C 49.730469 70.675781 48.03125 70.667969 46.960938 71.699219 " fill-opacity="1" fill-rule="nonzero"/><g clip-path="url(#6b8cf31daa)"><path fill="#ffffff" d="M 54.851562 79.714844 C 55.71875 78.828125 55.703125 77.410156 54.820312 76.539062 C 53.941406 75.683594 52.550781 75.683594 51.675781 76.539062 L 49.917969 78.300781 C 49.054688 79.195312 49.078125 80.617188 49.972656 81.46875 C 50.84375 82.308594 52.226562 82.308594 53.09375 81.476562 L 54.851562 79.714844 " fill-opacity="1" fill-rule="nonzero"/></g><path fill="#ffffff" d="M 40.722656 66.589844 L 38.097656 69.214844 C 36.792969 70.574219 36.832031 72.726562 38.183594 74.039062 C 39.503906 75.3125 41.59375 75.3125 42.914062 74.039062 L 45.539062 71.414062 C 46.84375 70.0625 46.804688 67.902344 45.453125 66.597656 C 44.132812 65.324219 42.042969 65.324219 40.722656 66.589844 " fill-opacity="1" fill-rule="nonzero"/><path fill="#ffffff" d="M 36.140625 69.472656 L 38.796875 66.808594 C 39.859375 65.703125 39.820312 63.949219 38.71875 62.886719 C 37.648438 61.851562 35.945312 61.851562 34.875 62.886719 L 32.21875 65.539062 C 31.15625 66.652344 31.195312 68.40625 32.296875 69.464844 C 33.367188 70.496094 35.0625 70.496094 36.140625 69.464844 L 36.140625 69.472656 " fill-opacity="1" fill-rule="nonzero"/><g clip-path="url(#862fed9e4e)"><path fill="#ffffff" d="M 80.589844 33.363281 L 87.6875 59.847656 C 87.773438 60.144531 88.066406 60.3125 88.371094 60.238281 L 99.21875 57.332031 C 99.523438 57.253906 99.703125 56.953125 99.617188 56.65625 C 99.617188 56.648438 99.617188 56.648438 99.617188 56.648438 L 92.527344 30.164062 C 92.449219 29.871094 92.136719 29.691406 91.851562 29.769531 C 91.84375 29.769531 91.84375 29.769531 91.84375 29.769531 L 80.984375 32.679688 C 80.691406 32.757812 80.511719 33.0625 80.589844 33.355469 C 80.589844 33.355469 80.589844 33.355469 80.589844 33.363281 " fill-opacity="1" fill-rule="nonzero"/></g><path fill="#ffffff" d="M 46.339844 32.992188 C 49.730469 31.296875 53.65625 31.042969 57.242188 32.261719 C 60.402344 33.339844 63.648438 34.132812 66.949219 34.613281 C 71.152344 35.847656 75.570312 36.121094 79.890625 35.398438 L 85.980469 58.109375 C 83.308594 59.070312 80.921875 60.6875 79.042969 62.808594 L 61.117188 44.882812 C 57.847656 41.621094 52.652344 41.339844 49.054688 44.230469 C 46.59375 46.203125 43.867188 47.832031 40.957031 49.066406 C 39.558594 49.660156 37.933594 49.007812 37.335938 47.601562 C 37.050781 46.925781 37.042969 46.164062 37.320312 45.480469 C 39.285156 40.65625 42.378906 36.371094 46.339844 32.992188 " fill-opacity="1" fill-rule="nonzero"/><g clip-path="url(#ece571d9f4)"><path fill="#ffffff" d="M 36.203125 45.023438 C 35.371094 47.058594 36.351562 49.371094 38.386719 50.203125 C 39.363281 50.597656 40.460938 50.589844 41.429688 50.179688 C 44.441406 48.898438 47.261719 47.210938 49.808594 45.167969 C 52.933594 42.660156 57.4375 42.910156 60.265625 45.738281 L 78.703125 64.183594 C 79.859375 65.355469 79.84375 67.25 78.671875 68.398438 C 77.496094 69.539062 75.640625 69.539062 74.476562 68.398438 L 65.101562 59.015625 C 64.855469 58.792969 64.464844 58.816406 64.246094 59.0625 C 64.039062 59.289062 64.039062 59.636719 64.246094 59.871094 L 73.195312 68.828125 C 74.335938 70.015625 74.296875 71.902344 73.101562 73.042969 C 71.953125 74.144531 70.128906 74.144531 68.976562 73.042969 L 61.15625 65.222656 C 60.910156 65.003906 60.527344 65.019531 60.300781 65.269531 C 60.09375 65.496094 60.09375 65.851562 60.300781 66.078125 L 67.175781 72.957031 C 68.347656 74.121094 68.347656 76.019531 67.175781 77.183594 C 66.011719 78.347656 64.125 78.347656 62.949219 77.175781 L 56.847656 71.0625 C 56.597656 70.84375 56.21875 70.859375 55.992188 71.109375 C 55.78125 71.335938 55.78125 71.691406 55.992188 71.917969 L 61.054688 76.980469 C 62.214844 78.152344 62.199219 80.050781 61.03125 81.207031 C 59.859375 82.355469 57.988281 82.355469 56.832031 81.207031 L 55.9375 80.3125 C 57.148438 78.835938 56.925781 76.65625 55.449219 75.449219 C 54.695312 74.835938 53.722656 74.574219 52.761719 74.714844 C 53.34375 72.585938 52.09375 70.402344 49.964844 69.820312 C 49.210938 69.609375 48.402344 69.632812 47.667969 69.882812 C 48.148438 67.382812 46.515625 64.957031 44.015625 64.46875 C 42.921875 64.257812 41.78125 64.445312 40.816406 65.011719 C 40.910156 62.816406 39.199219 60.957031 37.003906 60.867188 C 35.890625 60.820312 34.804688 61.238281 34.019531 62.03125 L 32.863281 63.1875 C 31.464844 60.476562 28.800781 58.644531 25.773438 58.300781 L 31.960938 35.167969 C 35.714844 35.8125 39.566406 35.515625 43.167969 34.3125 C 40.1875 37.402344 37.820312 41.046875 36.203125 45.023438 " fill-opacity="1" fill-rule="nonzero"/></g></svg>