<svg xmlns="http://www.w3.org/2000/svg" xmlns:xlink="http://www.w3.org/1999/xlink" width="150" zoomAndPan="magnify" viewBox="0 0 112.5 112.499997" height="150" preserveAspectRatio="xMidYMid meet" version="1.0"><defs><clipPath id="4c0b7ead33"><path d="M 0 0 L 112.003906 0 L 112.003906 112.003906 L 0 112.003906 Z M 0 0 " clip-rule="nonzero"/></clipPath><clipPath id="fcb65e9d8f"><path d="M 56 0 C 25.074219 0 0 25.074219 0 56 C 0 86.929688 25.074219 112.003906 56 112.003906 C 86.929688 112.003906 112.003906 86.929688 112.003906 56 C 112.003906 25.074219 86.929688 0 56 0 Z M 56 0 " clip-rule="nonzero"/></clipPath><clipPath id="04c44eae7a"><path d="M 17.933594 23.171875 L 94.058594 23.171875 L 94.058594 67 L 17.933594 67 Z M 17.933594 23.171875 " clip-rule="nonzero"/></clipPath><clipPath id="0f8fd7e8d7"><path d="M 23.019531 40.871094 L 88 40.871094 L 88 88.816406 L 23.019531 88.816406 Z M 23.019531 40.871094 " clip-rule="nonzero"/></clipPath></defs><g clip-path="url(#4c0b7ead33)"><g clip-path="url(#fcb65e9d8f)"><path fill="#2e70d4" d="M 0 0 L 112.003906 0 L 112.003906 112.003906 L 0 112.003906 Z M 0 0 " fill-opacity="1" fill-rule="nonzero"/></g></g><g clip-path="url(#04c44eae7a)"><path fill="#ffffff" d="M 79.945312 23.171875 L 94.007812 23.171875 L 94.007812 27.578125 L 94.054688 27.628906 L 94.007812 27.675781 L 94.007812 37.085938 L 89.136719 32.265625 L 60.660156 59.117188 L 48.234375 46.691406 L 21.265625 66.917969 L 17.933594 62.476562 L 48.765625 39.351562 L 60.78125 51.363281 L 85.183594 28.355469 L 79.945312 23.171875 " fill-opacity="1" fill-rule="nonzero"/></g><g clip-path="url(#0f8fd7e8d7)"><path fill="#ffffff" d="M 87.933594 40.996094 L 87.933594 88.816406 L 82.371094 88.816406 L 82.371094 40.996094 Z M 53.027344 53.824219 L 53.027344 88.816406 L 47.460938 88.816406 L 47.460938 53.824219 Z M 40.8125 60.195312 L 40.8125 88.816406 L 35.246094 88.816406 L 35.246094 60.195312 Z M 28.59375 67.175781 L 28.59375 88.816406 L 23.027344 88.816406 L 23.027344 67.175781 Z M 65.246094 63.683594 L 65.246094 88.816406 L 59.679688 88.816406 L 59.679688 63.683594 Z M 77.464844 54.957031 L 77.464844 88.816406 L 71.898438 88.816406 L 71.898438 54.957031 L 77.464844 54.957031 " fill-opacity="1" fill-rule="evenodd"/></g></svg>