<svg xmlns="http://www.w3.org/2000/svg" xmlns:xlink="http://www.w3.org/1999/xlink" width="500" zoomAndPan="magnify" viewBox="0 0 375 374.999991" height="500" preserveAspectRatio="xMidYMid meet" version="1.0"><defs><g/><clipPath id="d59cbc75c8"><path d="M 189.75 178.226562 L 234.257812 178.226562 L 234.257812 196.773438 L 189.75 196.773438 Z M 189.75 178.226562 " clip-rule="nonzero"/></clipPath><clipPath id="7f23341bfc"><path d="M 232.257812 194 L 238 194 L 238 202.957031 L 232.257812 202.957031 Z M 232.257812 194 " clip-rule="nonzero"/></clipPath><clipPath id="849985d549"><path d="M 232.257812 193.210938 L 238.257812 193.210938 L 238.257812 202.957031 L 232.257812 202.957031 Z M 232.257812 193.210938 " clip-rule="nonzero"/></clipPath></defs><g fill="#000000" fill-opacity="1"><g transform="translate(143.053706, 192.374987)"><g><path d="M 6.4375 -11.203125 C 8.0625 -11.203125 9.347656 -10.789062 10.296875 -9.96875 C 11.253906 -9.15625 11.734375 -7.992188 11.734375 -6.484375 L 8.359375 -6.484375 C 8.359375 -7.117188 8.1875 -7.625 7.84375 -8 C 7.507812 -8.375 7.035156 -8.5625 6.421875 -8.5625 C 5.703125 -8.5625 5.175781 -8.335938 4.84375 -7.890625 C 4.507812 -7.441406 4.34375 -6.816406 4.34375 -6.015625 L 4.34375 -4.984375 C 4.34375 -4.203125 4.507812 -3.582031 4.84375 -3.125 C 5.175781 -2.675781 5.691406 -2.453125 6.390625 -2.453125 C 7.066406 -2.453125 7.582031 -2.625 7.9375 -2.96875 C 8.289062 -3.320312 8.46875 -3.820312 8.46875 -4.46875 L 11.734375 -4.46875 C 11.734375 -2.957031 11.269531 -1.800781 10.34375 -1 C 9.414062 -0.207031 8.113281 0.1875 6.4375 0.1875 C 4.550781 0.1875 3.125 -0.289062 2.15625 -1.25 C 1.195312 -2.207031 0.71875 -3.625 0.71875 -5.5 C 0.71875 -7.375 1.195312 -8.789062 2.15625 -9.75 C 3.125 -10.71875 4.550781 -11.203125 6.4375 -11.203125 Z M 6.4375 -11.203125 "/></g></g></g><g fill="#000000" fill-opacity="1"><g transform="translate(155.49872, 192.374987)"><g><path d="M 1.078125 0 L 1.078125 -11.59375 L 4.25 -11.59375 L 4.25 0 Z M 1.078125 0 "/></g></g></g><g fill="#000000" fill-opacity="1"><g transform="translate(160.825441, 192.374987)"><g><path d="M 1.078125 -9.4375 L 1.078125 -11.59375 L 4.25 -11.59375 L 4.25 -9.4375 Z M 1.078125 0 L 1.078125 -8.453125 L 4.25 -8.453125 L 4.25 0 Z M 1.078125 0 "/></g></g></g><g fill="#000000" fill-opacity="1"><g transform="translate(166.152162, 192.374987)"><g><path d="M 5.328125 -8.640625 C 6.710938 -8.640625 7.832031 -8.34375 8.6875 -7.75 C 9.550781 -7.15625 9.984375 -6.253906 9.984375 -5.046875 L 6.890625 -5.046875 C 6.890625 -6.003906 6.367188 -6.484375 5.328125 -6.484375 C 4.285156 -6.484375 3.765625 -5.878906 3.765625 -4.671875 L 3.765625 -3.765625 C 3.765625 -2.566406 4.304688 -1.96875 5.390625 -1.96875 C 6.484375 -1.96875 7.03125 -2.457031 7.03125 -3.4375 L 9.984375 -3.4375 C 9.984375 -2.207031 9.550781 -1.296875 8.6875 -0.703125 C 7.832031 -0.109375 6.710938 0.1875 5.328125 0.1875 C 3.847656 0.1875 2.6875 -0.179688 1.84375 -0.921875 C 1 -1.671875 0.578125 -2.769531 0.578125 -4.21875 C 0.578125 -5.675781 1 -6.773438 1.84375 -7.515625 C 2.6875 -8.265625 3.847656 -8.640625 5.328125 -8.640625 Z M 5.328125 -8.640625 "/></g></g></g><g fill="#000000" fill-opacity="1"><g transform="translate(176.821603, 192.374987)"><g><path d="M 6.84375 -8.453125 L 10.5625 -8.453125 L 7.4375 -5.046875 L 10.640625 0 L 7.03125 0 L 5.25 -2.890625 L 4.140625 -1.828125 L 4.140625 0 L 0.953125 0 L 0.953125 -11.609375 L 4.140625 -11.609375 L 4.140625 -5.21875 Z M 6.84375 -8.453125 "/></g></g></g><g clip-path="url(#d59cbc75c8)"><path fill="#062e64" d="M 189.75 178.226562 L 234.242188 178.226562 L 234.242188 196.773438 L 189.75 196.773438 Z M 189.75 178.226562 " fill-opacity="1" fill-rule="nonzero"/></g><g fill="#ffffff" fill-opacity="1"><g transform="translate(191.566398, 192.374987)"><g><path d="M 8.515625 -11.015625 C 9.066406 -11.015625 9.570312 -10.894531 10.03125 -10.65625 C 10.5 -10.425781 10.867188 -10.101562 11.140625 -9.6875 C 11.410156 -9.28125 11.546875 -8.816406 11.546875 -8.296875 C 11.546875 -6.941406 10.9375 -6.09375 9.71875 -5.75 L 9.71875 -5.6875 C 11.113281 -5.363281 11.8125 -4.441406 11.8125 -2.921875 C 11.8125 -2.347656 11.664062 -1.835938 11.375 -1.390625 C 11.09375 -0.953125 10.707031 -0.609375 10.21875 -0.359375 C 9.726562 -0.117188 9.191406 0 8.609375 0 L 1.1875 0 L 1.1875 -11.015625 Z M 4.71875 -6.71875 L 7.15625 -6.71875 C 7.382812 -6.71875 7.578125 -6.800781 7.734375 -6.96875 C 7.890625 -7.132812 7.96875 -7.335938 7.96875 -7.578125 L 7.96875 -7.75 C 7.96875 -7.976562 7.882812 -8.175781 7.71875 -8.34375 C 7.5625 -8.507812 7.375 -8.59375 7.15625 -8.59375 L 4.71875 -8.59375 Z M 4.71875 -2.5625 L 7.40625 -2.5625 C 7.644531 -2.5625 7.835938 -2.644531 7.984375 -2.8125 C 8.140625 -2.976562 8.21875 -3.179688 8.21875 -3.421875 L 8.21875 -3.578125 C 8.21875 -3.828125 8.140625 -4.035156 7.984375 -4.203125 C 7.835938 -4.367188 7.644531 -4.453125 7.40625 -4.453125 L 4.71875 -4.453125 Z M 4.71875 -2.5625 "/></g></g></g><g fill="#ffffff" fill-opacity="1"><g transform="translate(204.011412, 192.374987)"><g><path d="M 7.09375 0 L 6.875 -1.28125 C 6.550781 -0.820312 6.117188 -0.460938 5.578125 -0.203125 C 5.035156 0.0546875 4.46875 0.1875 3.875 0.1875 C 2.894531 0.1875 2.15625 -0.0820312 1.65625 -0.625 C 1.164062 -1.164062 0.921875 -1.945312 0.921875 -2.96875 L 0.921875 -8.453125 L 4.109375 -8.453125 L 4.109375 -3.359375 C 4.109375 -2.992188 4.203125 -2.703125 4.390625 -2.484375 C 4.578125 -2.265625 4.84375 -2.15625 5.1875 -2.15625 C 5.582031 -2.15625 5.898438 -2.28125 6.140625 -2.53125 C 6.390625 -2.789062 6.515625 -3.109375 6.515625 -3.484375 L 6.515625 -8.453125 L 9.703125 -8.453125 L 9.703125 0 Z M 7.09375 0 "/></g></g></g><g fill="#ffffff" fill-opacity="1"><g transform="translate(214.680853, 192.374987)"><g><path d="M 1.078125 -9.4375 L 1.078125 -11.59375 L 4.25 -11.59375 L 4.25 -9.4375 Z M 1.078125 0 L 1.078125 -8.453125 L 4.25 -8.453125 L 4.25 0 Z M 1.078125 0 "/></g></g></g><g fill="#ffffff" fill-opacity="1"><g transform="translate(220.007574, 192.374987)"><g><path d="M 1.078125 0 L 1.078125 -11.59375 L 4.25 -11.59375 L 4.25 0 Z M 1.078125 0 "/></g></g></g><g fill="#ffffff" fill-opacity="1"><g transform="translate(225.334294, 192.374987)"><g><path d="M 6.59375 -8.453125 L 6.59375 -6.28125 L 4.796875 -6.28125 L 4.796875 -3.078125 C 4.796875 -2.691406 4.859375 -2.410156 4.984375 -2.234375 C 5.117188 -2.054688 5.359375 -1.96875 5.703125 -1.96875 L 6.59375 -1.96875 L 6.59375 -0.09375 C 6.332031 -0.0078125 6 0.0546875 5.59375 0.109375 C 5.1875 0.160156 4.835938 0.1875 4.546875 0.1875 C 3.609375 0.1875 2.882812 0.0195312 2.375 -0.3125 C 1.863281 -0.65625 1.609375 -1.238281 1.609375 -2.0625 L 1.609375 -6.28125 L 0.4375 -6.28125 L 0.4375 -8.453125 L 1.75 -8.453125 L 2.4375 -11.015625 L 4.796875 -11.015625 L 4.796875 -8.453125 Z M 6.59375 -8.453125 "/></g></g></g><g clip-path="url(#7f23341bfc)"><path fill="#ffffff" d="M 235.757812 200.421875 L 236.253906 200.421875 L 236.253906 201.476562 L 236.753906 201.476562 L 236.753906 202.460938 L 235.757812 202.460938 L 235.757812 201.476562 L 235.257812 201.476562 L 235.257812 200.488281 L 234.757812 200.488281 L 234.757812 199.992188 L 234.257812 199.992188 L 234.257812 200.488281 L 233.757812 200.488281 L 233.757812 200.984375 L 233.261719 200.984375 L 233.261719 201.476562 L 232.757812 201.476562 L 232.757812 194.234375 L 233.257812 194.234375 L 233.257812 194.730469 L 233.757812 194.730469 L 233.757812 195.222656 L 234.257812 195.222656 L 234.257812 195.71875 L 234.757812 195.71875 L 234.757812 196.214844 L 235.257812 196.214844 L 235.257812 196.710938 L 235.757812 196.710938 L 235.757812 197.207031 L 236.253906 197.207031 L 236.253906 197.703125 L 236.753906 197.703125 L 236.753906 198.199219 L 237.253906 198.199219 L 237.253906 198.695312 L 237.753906 198.695312 L 237.753906 199.429688 L 235.757812 199.429688 Z M 235.757812 200.421875 " fill-opacity="1" fill-rule="nonzero"/></g><g clip-path="url(#849985d549)"><path fill="#171514" d="M 233.257812 194.730469 L 233.257812 194.234375 L 233.757812 194.234375 L 233.757812 194.730469 Z M 234.257812 195.226562 L 234.257812 194.730469 L 233.757812 194.730469 L 233.757812 195.226562 Z M 234.757812 195.71875 L 234.757812 195.226562 L 234.257812 195.226562 L 234.257812 195.71875 Z M 235.257812 196.214844 L 235.257812 195.71875 L 234.757812 195.71875 L 234.757812 196.214844 Z M 235.757812 196.710938 L 235.757812 196.214844 L 235.257812 196.214844 L 235.257812 196.710938 Z M 236.257812 197.207031 L 236.257812 196.710938 L 235.757812 196.710938 L 235.757812 197.207031 Z M 236.757812 202.460938 L 235.757812 202.460938 L 235.757812 201.476562 L 235.257812 201.476562 L 235.257812 202.46875 L 235.757812 202.46875 L 235.757812 202.957031 L 236.753906 202.957031 L 236.753906 202.46875 L 237.253906 202.46875 L 237.253906 201.476562 L 236.753906 201.476562 L 236.753906 202.460938 Z M 235.257812 200.488281 L 234.757812 200.488281 L 234.757812 201.476562 L 235.257812 201.476562 Z M 234.257812 199.992188 L 234.257812 200.488281 L 234.757812 200.488281 L 234.757812 199.992188 Z M 233.757812 200.984375 L 234.257812 200.984375 L 234.257812 200.488281 L 233.757812 200.488281 Z M 233.261719 201.476562 L 233.757812 201.476562 L 233.757812 200.984375 L 233.261719 200.984375 Z M 236.753906 201.476562 L 236.753906 200.421875 L 236.253906 200.421875 L 236.253906 201.476562 Z M 236.753906 197.703125 L 236.753906 197.207031 L 236.253906 197.207031 L 236.253906 197.703125 Z M 237.253906 198.199219 L 237.253906 197.703125 L 236.753906 197.703125 L 236.753906 198.199219 Z M 237.753906 198.695312 L 237.753906 198.199219 L 237.253906 198.199219 L 237.253906 198.695312 Z M 237.753906 198.695312 L 237.753906 199.429688 L 235.757812 199.429688 L 235.757812 200.421875 L 236.257812 200.421875 L 236.257812 199.925781 L 238.253906 199.925781 L 238.253906 198.695312 Z M 232.757812 194.234375 L 233.257812 194.234375 L 233.257812 193.738281 L 232.757812 193.738281 L 232.757812 193.207031 L 232.257812 193.207031 L 232.257812 201.972656 L 233.261719 201.972656 L 233.261719 201.476562 L 232.757812 201.476562 Z M 232.757812 194.234375 " fill-opacity="1" fill-rule="nonzero"/></g></svg>