<svg xmlns="http://www.w3.org/2000/svg" xmlns:xlink="http://www.w3.org/1999/xlink" width="800" zoomAndPan="magnify" viewBox="0 0 600 225" height="300" preserveAspectRatio="xMidYMid meet" version="1.0"><defs><g/><clipPath id="193f983434"><path d="M 295.148438 55.359375 L 562.578125 55.359375 L 562.578125 166.816406 L 295.148438 166.816406 Z M 295.148438 55.359375 " clip-rule="nonzero"/></clipPath><clipPath id="0f9cc03b6a"><path d="M 550.550781 145.414062 L 585.050781 145.414062 L 585.050781 202.371094 L 550.550781 202.371094 Z M 550.550781 145.414062 " clip-rule="nonzero"/></clipPath></defs><g fill="#000000" fill-opacity="1"><g transform="translate(14.575794, 140.379932)"><g><path d="M 38.640625 -67.28125 C 48.441406 -67.28125 56.191406 -64.828125 61.890625 -59.921875 C 67.597656 -55.023438 70.453125 -48.03125 70.453125 -38.9375 L 50.171875 -38.9375 C 50.171875 -42.78125 49.160156 -45.820312 47.140625 -48.0625 C 45.128906 -50.300781 42.265625 -51.421875 38.546875 -51.421875 C 34.253906 -51.421875 31.097656 -50.078125 29.078125 -47.390625 C 27.054688 -44.703125 26.046875 -40.953125 26.046875 -36.140625 L 26.046875 -29.984375 C 26.046875 -25.242188 27.054688 -21.507812 29.078125 -18.78125 C 31.097656 -16.0625 34.191406 -14.703125 38.359375 -14.703125 C 42.453125 -14.703125 45.554688 -15.757812 47.671875 -17.875 C 49.785156 -19.988281 50.84375 -22.96875 50.84375 -26.8125 L 70.453125 -26.8125 C 70.453125 -17.78125 67.679688 -10.859375 62.140625 -6.046875 C 56.597656 -1.242188 48.765625 1.15625 38.640625 1.15625 C 27.359375 1.15625 18.816406 -1.726562 13.015625 -7.5 C 7.222656 -13.269531 4.328125 -21.789062 4.328125 -33.0625 C 4.328125 -44.34375 7.222656 -52.863281 13.015625 -58.625 C 18.816406 -64.394531 27.359375 -67.28125 38.640625 -67.28125 Z M 38.640625 -67.28125 "/></g></g></g><g fill="#000000" fill-opacity="1"><g transform="translate(89.351554, 140.379932)"><g><path d="M 6.4375 0 L 6.4375 -69.6875 L 25.5625 -69.6875 L 25.5625 0 Z M 6.4375 0 "/></g></g></g><g fill="#000000" fill-opacity="1"><g transform="translate(121.35711, 140.379932)"><g><path d="M 6.4375 -56.71875 L 6.4375 -69.6875 L 25.5625 -69.6875 L 25.5625 -56.71875 Z M 6.4375 0 L 6.4375 -50.75 L 25.5625 -50.75 L 25.5625 0 Z M 6.4375 0 "/></g></g></g><g fill="#000000" fill-opacity="1"><g transform="translate(153.362666, 140.379932)"><g><path d="M 32.015625 -51.90625 C 40.335938 -51.90625 47.078125 -50.125 52.234375 -46.5625 C 57.398438 -43.007812 59.984375 -37.582031 59.984375 -30.28125 L 41.4375 -30.28125 C 41.4375 -36.050781 38.296875 -38.9375 32.015625 -38.9375 C 25.734375 -38.9375 22.59375 -35.3125 22.59375 -28.0625 L 22.59375 -22.59375 C 22.59375 -15.414062 25.859375 -11.828125 32.390625 -11.828125 C 38.929688 -11.828125 42.203125 -14.773438 42.203125 -20.671875 L 59.984375 -20.671875 C 59.984375 -13.296875 57.398438 -7.8125 52.234375 -4.21875 C 47.078125 -0.632812 40.335938 1.15625 32.015625 1.15625 C 23.097656 1.15625 16.109375 -1.082031 11.046875 -5.5625 C 5.984375 -10.050781 3.453125 -16.65625 3.453125 -25.375 C 3.453125 -34.09375 5.984375 -40.691406 11.046875 -45.171875 C 16.109375 -49.660156 23.097656 -51.90625 32.015625 -51.90625 Z M 32.015625 -51.90625 "/></g></g></g><g fill="#000000" fill-opacity="1"><g transform="translate(217.469907, 140.379932)"><g><path d="M 41.140625 -50.75 L 63.4375 -50.75 L 44.703125 -30.28125 L 63.921875 0 L 42.203125 0 L 31.53125 -17.40625 L 24.890625 -10.953125 L 24.890625 0 L 5.765625 0 L 5.765625 -69.78125 L 24.890625 -69.78125 L 24.890625 -31.34375 Z M 41.140625 -50.75 "/></g></g></g><g clip-path="url(#193f983434)"><path fill="#062e64" d="M 295.148438 55.359375 L 562.472656 55.359375 L 562.472656 166.816406 L 295.148438 166.816406 Z M 295.148438 55.359375 " fill-opacity="1" fill-rule="nonzero"/></g><g fill="#ffffff" fill-opacity="1"><g transform="translate(306.063897, 140.379932)"><g><path d="M 51.140625 -66.140625 C 54.472656 -66.140625 57.53125 -65.445312 60.3125 -64.0625 C 63.101562 -62.6875 65.316406 -60.75 66.953125 -58.25 C 68.585938 -55.75 69.40625 -52.960938 69.40625 -49.890625 C 69.40625 -41.753906 65.71875 -36.628906 58.34375 -34.515625 L 58.34375 -34.125 C 66.738281 -32.195312 70.9375 -26.6875 70.9375 -17.59375 C 70.9375 -14.132812 70.085938 -11.070312 68.390625 -8.40625 C 66.691406 -5.75 64.367188 -3.679688 61.421875 -2.203125 C 58.472656 -0.734375 55.238281 0 51.71875 0 L 7.109375 0 L 7.109375 -66.140625 Z M 28.359375 -40.375 L 42.96875 -40.375 C 44.375 -40.375 45.539062 -40.867188 46.46875 -41.859375 C 47.40625 -42.859375 47.875 -44.09375 47.875 -45.5625 L 47.875 -46.53125 C 47.875 -47.9375 47.390625 -49.132812 46.421875 -50.125 C 45.460938 -51.125 44.3125 -51.625 42.96875 -51.625 L 28.359375 -51.625 Z M 28.359375 -15.375 L 44.5 -15.375 C 45.914062 -15.375 47.085938 -15.867188 48.015625 -16.859375 C 48.941406 -17.859375 49.40625 -19.097656 49.40625 -20.578125 L 49.40625 -21.53125 C 49.40625 -23.007812 48.941406 -24.242188 48.015625 -25.234375 C 47.085938 -26.222656 45.914062 -26.71875 44.5 -26.71875 L 28.359375 -26.71875 Z M 28.359375 -15.375 "/></g></g></g><g fill="#ffffff" fill-opacity="1"><g transform="translate(380.839657, 140.379932)"><g><path d="M 42.578125 0 L 41.328125 -7.6875 C 39.347656 -4.9375 36.738281 -2.773438 33.5 -1.203125 C 30.257812 0.367188 26.847656 1.15625 23.265625 1.15625 C 17.367188 1.15625 12.945312 -0.476562 10 -3.75 C 7.050781 -7.019531 5.578125 -11.726562 5.578125 -17.875 L 5.578125 -50.75 L 24.703125 -50.75 L 24.703125 -20.1875 C 24.703125 -18.007812 25.257812 -16.265625 26.375 -14.953125 C 27.5 -13.640625 29.085938 -12.984375 31.140625 -12.984375 C 33.515625 -12.984375 35.4375 -13.75 36.90625 -15.28125 C 38.382812 -16.820312 39.125 -18.710938 39.125 -20.953125 L 39.125 -50.75 L 58.25 -50.75 L 58.25 0 Z M 42.578125 0 "/></g></g></g><g fill="#ffffff" fill-opacity="1"><g transform="translate(444.946898, 140.379932)"><g><path d="M 6.4375 -56.71875 L 6.4375 -69.6875 L 25.5625 -69.6875 L 25.5625 -56.71875 Z M 6.4375 0 L 6.4375 -50.75 L 25.5625 -50.75 L 25.5625 0 Z M 6.4375 0 "/></g></g></g><g fill="#ffffff" fill-opacity="1"><g transform="translate(476.952454, 140.379932)"><g><path d="M 6.4375 0 L 6.4375 -69.6875 L 25.5625 -69.6875 L 25.5625 0 Z M 6.4375 0 "/></g></g></g><g fill="#ffffff" fill-opacity="1"><g transform="translate(508.95801, 140.379932)"><g><path d="M 39.609375 -50.75 L 39.609375 -37.78125 L 28.84375 -37.78125 L 28.84375 -18.453125 C 28.84375 -16.148438 29.222656 -14.46875 29.984375 -13.40625 C 30.753906 -12.351562 32.164062 -11.828125 34.21875 -11.828125 L 39.609375 -11.828125 L 39.609375 -0.578125 C 38.066406 -0.0664062 36.078125 0.347656 33.640625 0.671875 C 31.203125 0.992188 29.085938 1.15625 27.296875 1.15625 C 21.660156 1.15625 17.316406 0.128906 14.265625 -1.921875 C 11.222656 -3.972656 9.703125 -7.46875 9.703125 -12.40625 L 9.703125 -37.78125 L 2.59375 -37.78125 L 2.59375 -50.75 L 10.484375 -50.75 L 14.609375 -66.140625 L 28.84375 -66.140625 L 28.84375 -50.75 Z M 39.609375 -50.75 "/></g></g></g><path fill="#ffffff" d="M 570.675781 187.558594 L 573.550781 187.558594 L 573.550781 193.730469 L 576.425781 193.730469 L 576.425781 199.472656 L 570.6875 199.472656 L 570.6875 193.730469 L 567.8125 193.730469 L 567.8125 187.9375 L 564.9375 187.9375 L 564.9375 185.039062 L 562.0625 185.039062 L 562.0625 187.9375 L 559.1875 187.9375 L 559.1875 190.835938 L 556.3125 190.835938 L 556.3125 193.730469 L 553.425781 193.730469 L 553.425781 151.378906 L 556.300781 151.378906 L 556.300781 154.277344 L 559.175781 154.277344 L 559.175781 157.175781 L 562.050781 157.175781 L 562.050781 160.070312 L 564.925781 160.070312 L 564.925781 162.96875 L 567.800781 162.96875 L 567.800781 165.867188 L 570.675781 165.867188 L 570.675781 168.761719 L 573.550781 168.761719 L 573.550781 171.660156 L 576.425781 171.660156 L 576.425781 174.554688 L 579.300781 174.554688 L 579.300781 177.453125 L 582.175781 177.453125 L 582.175781 181.765625 L 570.675781 181.765625 Z M 570.675781 187.558594 " fill-opacity="1" fill-rule="nonzero"/><g clip-path="url(#0f9cc03b6a)"><path fill="#171514" d="M 556.300781 154.277344 L 556.300781 151.378906 L 559.175781 151.378906 L 559.175781 154.277344 Z M 562.054688 157.175781 L 562.054688 154.277344 L 559.175781 154.277344 L 559.175781 157.175781 Z M 564.929688 160.074219 L 564.929688 157.175781 L 562.054688 157.175781 L 562.054688 160.074219 Z M 567.804688 162.972656 L 567.804688 160.074219 L 564.929688 160.074219 L 564.929688 162.972656 Z M 570.679688 165.867188 L 570.679688 162.972656 L 567.804688 162.972656 L 567.804688 165.867188 Z M 573.558594 168.765625 L 573.558594 165.867188 L 570.679688 165.867188 L 570.679688 168.765625 Z M 576.433594 199.476562 L 570.6875 199.476562 L 570.6875 193.730469 L 567.8125 193.730469 L 567.8125 199.511719 L 570.675781 199.511719 L 570.675781 202.371094 L 576.425781 202.371094 L 576.425781 199.527344 L 579.300781 199.527344 L 579.300781 193.730469 L 576.425781 193.730469 L 576.425781 199.472656 Z M 567.8125 187.9375 L 564.9375 187.9375 L 564.9375 193.734375 L 567.8125 193.734375 Z M 562.0625 185.039062 L 562.0625 187.9375 L 564.9375 187.9375 L 564.9375 185.039062 Z M 559.1875 190.835938 L 562.0625 190.835938 L 562.0625 187.9375 L 559.1875 187.9375 Z M 556.3125 193.734375 L 559.1875 193.734375 L 559.1875 190.835938 L 556.3125 190.835938 Z M 576.421875 193.734375 L 576.421875 187.558594 L 573.546875 187.558594 L 573.546875 193.730469 Z M 576.421875 171.660156 L 576.421875 168.761719 L 573.546875 168.761719 L 573.546875 171.660156 Z M 579.300781 174.558594 L 579.300781 171.660156 L 576.421875 171.660156 L 576.421875 174.558594 Z M 582.175781 177.457031 L 582.175781 174.558594 L 579.300781 174.558594 L 579.300781 177.457031 Z M 582.175781 177.457031 L 582.175781 181.765625 L 570.675781 181.765625 L 570.675781 187.5625 L 573.550781 187.5625 L 573.550781 184.664062 L 585.050781 184.664062 L 585.050781 177.457031 Z M 553.425781 151.378906 L 556.300781 151.378906 L 556.300781 148.484375 L 553.425781 148.484375 L 553.425781 145.375 L 550.550781 145.375 L 550.550781 196.628906 L 556.3125 196.628906 L 556.3125 193.730469 L 553.425781 193.730469 Z M 553.425781 151.378906 " fill-opacity="1" fill-rule="nonzero"/></g></svg>