<svg xmlns="http://www.w3.org/2000/svg" xmlns:xlink="http://www.w3.org/1999/xlink" width="50" zoomAndPan="magnify" viewBox="0 0 37.5 37.499999" height="50" preserveAspectRatio="xMidYMid meet" version="1.0"><defs><g/><clipPath id="6232fdf043"><path d="M 18.210938 14.050781 L 34.390625 14.050781 L 34.390625 20.796875 L 18.210938 20.796875 Z M 18.210938 14.050781 " clip-rule="nonzero"/></clipPath><clipPath id="9f7beab475"><path d="M 33.660156 19.5 L 35.882812 19.5 L 35.882812 23.199219 L 33.660156 23.199219 Z M 33.660156 19.5 " clip-rule="nonzero"/></clipPath></defs><g fill="#000000" fill-opacity="1"><g transform="translate(1.235657, 19.195995)"><g><path d="M 2.34375 -4.0625 C 2.925781 -4.0625 3.390625 -3.910156 3.734375 -3.609375 C 4.085938 -3.316406 4.265625 -2.898438 4.265625 -2.359375 L 3.03125 -2.359375 C 3.03125 -2.585938 2.96875 -2.769531 2.84375 -2.90625 C 2.726562 -3.039062 2.554688 -3.109375 2.328125 -3.109375 C 2.066406 -3.109375 1.875 -3.023438 1.75 -2.859375 C 1.632812 -2.703125 1.578125 -2.476562 1.578125 -2.1875 L 1.578125 -1.8125 C 1.578125 -1.53125 1.632812 -1.304688 1.75 -1.140625 C 1.875 -0.972656 2.0625 -0.890625 2.3125 -0.890625 C 2.5625 -0.890625 2.75 -0.953125 2.875 -1.078125 C 3.007812 -1.203125 3.078125 -1.382812 3.078125 -1.625 L 4.265625 -1.625 C 4.265625 -1.070312 4.09375 -0.648438 3.75 -0.359375 C 3.414062 -0.078125 2.945312 0.0625 2.34375 0.0625 C 1.65625 0.0625 1.132812 -0.109375 0.78125 -0.453125 C 0.4375 -0.796875 0.265625 -1.3125 0.265625 -2 C 0.265625 -2.675781 0.4375 -3.1875 0.78125 -3.53125 C 1.132812 -3.882812 1.65625 -4.0625 2.34375 -4.0625 Z M 2.34375 -4.0625 "/></g></g></g><g fill="#000000" fill-opacity="1"><g transform="translate(5.759451, 19.195995)"><g><path d="M 0.390625 0 L 0.390625 -4.21875 L 1.546875 -4.21875 L 1.546875 0 Z M 0.390625 0 "/></g></g></g><g fill="#000000" fill-opacity="1"><g transform="translate(7.695728, 19.195995)"><g><path d="M 0.390625 -3.421875 L 0.390625 -4.21875 L 1.546875 -4.21875 L 1.546875 -3.421875 Z M 0.390625 0 L 0.390625 -3.0625 L 1.546875 -3.0625 L 1.546875 0 Z M 0.390625 0 "/></g></g></g><g fill="#000000" fill-opacity="1"><g transform="translate(9.632004, 19.195995)"><g><path d="M 1.9375 -3.140625 C 2.4375 -3.140625 2.84375 -3.03125 3.15625 -2.8125 C 3.46875 -2.601562 3.625 -2.273438 3.625 -1.828125 L 2.5 -1.828125 C 2.5 -2.179688 2.3125 -2.359375 1.9375 -2.359375 C 1.550781 -2.359375 1.359375 -2.140625 1.359375 -1.703125 L 1.359375 -1.359375 C 1.359375 -0.929688 1.554688 -0.71875 1.953125 -0.71875 C 2.347656 -0.71875 2.546875 -0.894531 2.546875 -1.25 L 3.625 -1.25 C 3.625 -0.800781 3.46875 -0.46875 3.15625 -0.25 C 2.84375 -0.0390625 2.4375 0.0625 1.9375 0.0625 C 1.394531 0.0625 0.96875 -0.0703125 0.65625 -0.34375 C 0.351562 -0.613281 0.203125 -1.007812 0.203125 -1.53125 C 0.203125 -2.0625 0.351562 -2.460938 0.65625 -2.734375 C 0.96875 -3.003906 1.394531 -3.140625 1.9375 -3.140625 Z M 1.9375 -3.140625 "/></g></g></g><g fill="#000000" fill-opacity="1"><g transform="translate(13.510373, 19.195995)"><g><path d="M 2.484375 -3.0625 L 3.84375 -3.0625 L 2.703125 -1.828125 L 3.859375 0 L 2.546875 0 L 1.90625 -1.046875 L 1.5 -0.65625 L 1.5 0 L 0.34375 0 L 0.34375 -4.21875 L 1.5 -4.21875 L 1.5 -1.890625 Z M 2.484375 -3.0625 "/></g></g></g><g clip-path="url(#6232fdf043)"><path fill="#062e64" d="M 18.210938 14.050781 L 34.382812 14.050781 L 34.382812 20.796875 L 18.210938 20.796875 Z M 18.210938 14.050781 " fill-opacity="1" fill-rule="nonzero"/></g><g fill="#ffffff" fill-opacity="1"><g transform="translate(18.870143, 19.195995)"><g><path d="M 3.09375 -4 C 3.289062 -4 3.472656 -3.957031 3.640625 -3.875 C 3.816406 -3.789062 3.953125 -3.671875 4.046875 -3.515625 C 4.148438 -3.367188 4.203125 -3.203125 4.203125 -3.015625 C 4.203125 -2.523438 3.976562 -2.21875 3.53125 -2.09375 L 3.53125 -2.0625 C 4.039062 -1.945312 4.296875 -1.613281 4.296875 -1.0625 C 4.296875 -0.851562 4.242188 -0.664062 4.140625 -0.5 C 4.035156 -0.34375 3.894531 -0.21875 3.71875 -0.125 C 3.539062 -0.0390625 3.34375 0 3.125 0 L 0.4375 0 L 0.4375 -4 Z M 1.71875 -2.4375 L 2.59375 -2.4375 C 2.675781 -2.4375 2.742188 -2.46875 2.796875 -2.53125 C 2.859375 -2.59375 2.890625 -2.664062 2.890625 -2.75 L 2.890625 -2.8125 C 2.890625 -2.894531 2.859375 -2.96875 2.796875 -3.03125 C 2.742188 -3.09375 2.675781 -3.125 2.59375 -3.125 L 1.71875 -3.125 Z M 1.71875 -0.9375 L 2.6875 -0.9375 C 2.769531 -0.9375 2.835938 -0.960938 2.890625 -1.015625 C 2.953125 -1.078125 2.984375 -1.15625 2.984375 -1.25 L 2.984375 -1.296875 C 2.984375 -1.390625 2.953125 -1.460938 2.890625 -1.515625 C 2.835938 -1.578125 2.769531 -1.609375 2.6875 -1.609375 L 1.71875 -1.609375 Z M 1.71875 -0.9375 "/></g></g></g><g fill="#ffffff" fill-opacity="1"><g transform="translate(23.393937, 19.195995)"><g><path d="M 2.578125 0 L 2.5 -0.46875 C 2.375 -0.300781 2.210938 -0.171875 2.015625 -0.078125 C 1.828125 0.015625 1.625 0.0625 1.40625 0.0625 C 1.050781 0.0625 0.785156 -0.03125 0.609375 -0.21875 C 0.429688 -0.414062 0.34375 -0.703125 0.34375 -1.078125 L 0.34375 -3.0625 L 1.5 -3.0625 L 1.5 -1.21875 C 1.5 -1.082031 1.53125 -0.972656 1.59375 -0.890625 C 1.664062 -0.816406 1.765625 -0.78125 1.890625 -0.78125 C 2.023438 -0.78125 2.132812 -0.828125 2.21875 -0.921875 C 2.3125 -1.015625 2.359375 -1.128906 2.359375 -1.265625 L 2.359375 -3.0625 L 3.515625 -3.0625 L 3.515625 0 Z M 2.578125 0 "/></g></g></g><g fill="#ffffff" fill-opacity="1"><g transform="translate(27.272305, 19.195995)"><g><path d="M 0.390625 -3.421875 L 0.390625 -4.21875 L 1.546875 -4.21875 L 1.546875 -3.421875 Z M 0.390625 0 L 0.390625 -3.0625 L 1.546875 -3.0625 L 1.546875 0 Z M 0.390625 0 "/></g></g></g><g fill="#ffffff" fill-opacity="1"><g transform="translate(29.208582, 19.195995)"><g><path d="M 0.390625 0 L 0.390625 -4.21875 L 1.546875 -4.21875 L 1.546875 0 Z M 0.390625 0 "/></g></g></g><g fill="#ffffff" fill-opacity="1"><g transform="translate(31.144858, 19.195995)"><g><path d="M 2.390625 -3.0625 L 2.390625 -2.28125 L 1.75 -2.28125 L 1.75 -1.109375 C 1.75 -0.972656 1.769531 -0.875 1.8125 -0.8125 C 1.863281 -0.75 1.945312 -0.71875 2.0625 -0.71875 L 2.390625 -0.71875 L 2.390625 -0.03125 C 2.296875 0 2.175781 0.0195312 2.03125 0.03125 C 1.882812 0.0507812 1.757812 0.0625 1.65625 0.0625 C 1.3125 0.0625 1.046875 0.00390625 0.859375 -0.109375 C 0.679688 -0.234375 0.59375 -0.445312 0.59375 -0.75 L 0.59375 -2.28125 L 0.15625 -2.28125 L 0.15625 -3.0625 L 0.640625 -3.0625 L 0.890625 -4 L 1.75 -4 L 1.75 -3.0625 Z M 2.390625 -3.0625 "/></g></g></g><g clip-path="url(#9f7beab475)"><path fill="#ffffff" d="M 34.957031 22.234375 L 35.140625 22.234375 L 35.140625 22.636719 L 35.328125 22.636719 L 35.328125 23.007812 L 34.957031 23.007812 L 34.957031 22.636719 L 34.773438 22.636719 L 34.773438 22.257812 L 34.585938 22.257812 L 34.585938 22.070312 L 34.402344 22.070312 L 34.402344 22.257812 L 34.21875 22.257812 L 34.21875 22.449219 L 34.03125 22.449219 L 34.03125 22.636719 L 33.847656 22.636719 L 33.847656 19.890625 L 34.03125 19.890625 L 34.03125 20.078125 L 34.214844 20.078125 L 34.214844 20.265625 L 34.402344 20.265625 L 34.402344 20.453125 L 34.585938 20.453125 L 34.585938 20.640625 L 34.769531 20.640625 L 34.769531 20.828125 L 34.957031 20.828125 L 34.957031 21.015625 L 35.140625 21.015625 L 35.140625 21.203125 L 35.328125 21.203125 L 35.328125 21.394531 L 35.511719 21.394531 L 35.511719 21.582031 L 35.695312 21.582031 L 35.695312 21.859375 L 34.957031 21.859375 Z M 34.957031 22.234375 " fill-opacity="1" fill-rule="nonzero"/><path fill="#171514" d="M 34.03125 20.078125 L 34.03125 19.890625 L 34.214844 19.890625 L 34.214844 20.078125 Z M 34.402344 20.265625 L 34.402344 20.078125 L 34.214844 20.078125 L 34.214844 20.265625 Z M 34.585938 20.453125 L 34.585938 20.265625 L 34.402344 20.265625 L 34.402344 20.453125 Z M 34.773438 20.640625 L 34.773438 20.453125 L 34.585938 20.453125 L 34.585938 20.640625 Z M 34.957031 20.828125 L 34.957031 20.640625 L 34.773438 20.640625 L 34.773438 20.828125 Z M 35.140625 21.015625 L 35.140625 20.828125 L 34.957031 20.828125 L 34.957031 21.015625 Z M 35.328125 23.007812 L 34.957031 23.007812 L 34.957031 22.636719 L 34.773438 22.636719 L 34.773438 23.011719 L 34.957031 23.011719 L 34.957031 23.195312 L 35.328125 23.195312 L 35.328125 23.011719 L 35.511719 23.011719 L 35.511719 22.636719 L 35.328125 22.636719 Z M 34.773438 22.257812 L 34.585938 22.257812 L 34.585938 22.636719 L 34.773438 22.636719 Z M 34.402344 22.070312 L 34.402344 22.257812 L 34.585938 22.257812 L 34.585938 22.070312 Z M 34.21875 22.449219 L 34.402344 22.449219 L 34.402344 22.257812 L 34.21875 22.257812 Z M 34.03125 22.636719 L 34.21875 22.636719 L 34.21875 22.449219 L 34.03125 22.449219 Z M 35.328125 22.636719 L 35.328125 22.234375 L 35.140625 22.234375 L 35.140625 22.636719 Z M 35.328125 21.203125 L 35.328125 21.015625 L 35.140625 21.015625 L 35.140625 21.203125 Z M 35.511719 21.394531 L 35.511719 21.203125 L 35.328125 21.203125 L 35.328125 21.394531 Z M 35.695312 21.582031 L 35.695312 21.394531 L 35.511719 21.394531 L 35.511719 21.582031 Z M 35.695312 21.582031 L 35.695312 21.859375 L 34.957031 21.859375 L 34.957031 22.234375 L 35.140625 22.234375 L 35.140625 22.046875 L 35.882812 22.046875 L 35.882812 21.582031 Z M 33.847656 19.890625 L 34.03125 19.890625 L 34.03125 19.703125 L 33.847656 19.703125 L 33.847656 19.5 L 33.660156 19.5 L 33.660156 22.824219 L 34.03125 22.824219 L 34.03125 22.636719 L 33.847656 22.636719 Z M 33.847656 19.890625 " fill-opacity="1" fill-rule="nonzero"/></g></svg>