<svg xmlns="http://www.w3.org/2000/svg" xmlns:xlink="http://www.w3.org/1999/xlink" width="150" zoomAndPan="magnify" viewBox="0 0 112.5 112.499997" height="150" preserveAspectRatio="xMidYMid meet" version="1.0"><defs><g/><clipPath id="55ec1ddbd4"><path d="M 55.199219 43.8125 L 99.507812 43.8125 L 99.507812 62.277344 L 55.199219 62.277344 Z M 55.199219 43.8125 " clip-rule="nonzero"/></clipPath><clipPath id="b388855f45"><path d="M 97.515625 58.730469 L 103.488281 58.730469 L 103.488281 68.433594 L 97.515625 68.433594 Z M 97.515625 58.730469 " clip-rule="nonzero"/></clipPath></defs><g fill="#000000" fill-opacity="1"><g transform="translate(8.707827, 57.898317)"><g><path d="M 6.40625 -11.140625 C 8.03125 -11.140625 9.3125 -10.734375 10.25 -9.921875 C 11.195312 -9.109375 11.671875 -7.953125 11.671875 -6.453125 L 8.3125 -6.453125 C 8.3125 -7.085938 8.144531 -7.585938 7.8125 -7.953125 C 7.476562 -8.328125 7.003906 -8.515625 6.390625 -8.515625 C 5.671875 -8.515625 5.144531 -8.289062 4.8125 -7.84375 C 4.476562 -7.40625 4.3125 -6.785156 4.3125 -5.984375 L 4.3125 -4.96875 C 4.3125 -4.1875 4.476562 -3.566406 4.8125 -3.109375 C 5.144531 -2.660156 5.660156 -2.4375 6.359375 -2.4375 C 7.035156 -2.4375 7.546875 -2.609375 7.890625 -2.953125 C 8.242188 -3.304688 8.421875 -3.800781 8.421875 -4.4375 L 11.671875 -4.4375 C 11.671875 -2.945312 11.210938 -1.800781 10.296875 -1 C 9.378906 -0.207031 8.082031 0.1875 6.40625 0.1875 C 4.53125 0.1875 3.113281 -0.285156 2.15625 -1.234375 C 1.195312 -2.191406 0.71875 -3.609375 0.71875 -5.484375 C 0.71875 -7.347656 1.195312 -8.753906 2.15625 -9.703125 C 3.113281 -10.660156 4.53125 -11.140625 6.40625 -11.140625 Z M 6.40625 -11.140625 "/></g></g></g><g fill="#000000" fill-opacity="1"><g transform="translate(21.097774, 57.898317)"><g><path d="M 1.0625 0 L 1.0625 -11.546875 L 4.234375 -11.546875 L 4.234375 0 Z M 1.0625 0 "/></g></g></g><g fill="#000000" fill-opacity="1"><g transform="translate(26.400926, 57.898317)"><g><path d="M 1.0625 -9.390625 L 1.0625 -11.546875 L 4.234375 -11.546875 L 4.234375 -9.390625 Z M 1.0625 0 L 1.0625 -8.40625 L 4.234375 -8.40625 L 4.234375 0 Z M 1.0625 0 "/></g></g></g><g fill="#000000" fill-opacity="1"><g transform="translate(31.704077, 57.898317)"><g><path d="M 5.296875 -8.59375 C 6.679688 -8.59375 7.800781 -8.296875 8.65625 -7.703125 C 9.507812 -7.117188 9.9375 -6.222656 9.9375 -5.015625 L 6.859375 -5.015625 C 6.859375 -5.972656 6.335938 -6.453125 5.296875 -6.453125 C 4.253906 -6.453125 3.734375 -5.851562 3.734375 -4.65625 L 3.734375 -3.734375 C 3.734375 -2.546875 4.273438 -1.953125 5.359375 -1.953125 C 6.441406 -1.953125 6.984375 -2.441406 6.984375 -3.421875 L 9.9375 -3.421875 C 9.9375 -2.203125 9.507812 -1.296875 8.65625 -0.703125 C 7.800781 -0.109375 6.679688 0.1875 5.296875 0.1875 C 3.828125 0.1875 2.671875 -0.179688 1.828125 -0.921875 C 0.992188 -1.660156 0.578125 -2.753906 0.578125 -4.203125 C 0.578125 -5.648438 0.992188 -6.742188 1.828125 -7.484375 C 2.671875 -8.222656 3.828125 -8.59375 5.296875 -8.59375 Z M 5.296875 -8.59375 "/></g></g></g><g fill="#000000" fill-opacity="1"><g transform="translate(42.326307, 57.898317)"><g><path d="M 6.8125 -8.40625 L 10.515625 -8.40625 L 7.40625 -5.015625 L 10.59375 0 L 6.984375 0 L 5.21875 -2.875 L 4.125 -1.8125 L 4.125 0 L 0.953125 0 L 0.953125 -11.5625 L 4.125 -11.5625 L 4.125 -5.1875 Z M 6.8125 -8.40625 "/></g></g></g><g clip-path="url(#55ec1ddbd4)"><path fill="#062e64" d="M 55.199219 43.8125 L 99.492188 43.8125 L 99.492188 62.277344 L 55.199219 62.277344 Z M 55.199219 43.8125 " fill-opacity="1" fill-rule="nonzero"/></g><g fill="#ffffff" fill-opacity="1"><g transform="translate(57.005857, 57.898317)"><g><path d="M 8.46875 -10.953125 C 9.019531 -10.953125 9.523438 -10.835938 9.984375 -10.609375 C 10.453125 -10.378906 10.820312 -10.054688 11.09375 -9.640625 C 11.363281 -9.234375 11.5 -8.773438 11.5 -8.265625 C 11.5 -6.910156 10.890625 -6.0625 9.671875 -5.71875 L 9.671875 -5.65625 C 11.054688 -5.332031 11.75 -4.414062 11.75 -2.90625 C 11.75 -2.332031 11.609375 -1.828125 11.328125 -1.390625 C 11.046875 -0.953125 10.660156 -0.609375 10.171875 -0.359375 C 9.679688 -0.117188 9.144531 0 8.5625 0 L 1.171875 0 L 1.171875 -10.953125 Z M 4.703125 -6.6875 L 7.109375 -6.6875 C 7.347656 -6.6875 7.539062 -6.769531 7.6875 -6.9375 C 7.84375 -7.101562 7.921875 -7.304688 7.921875 -7.546875 L 7.921875 -7.703125 C 7.921875 -7.941406 7.84375 -8.140625 7.6875 -8.296875 C 7.53125 -8.460938 7.335938 -8.546875 7.109375 -8.546875 L 4.703125 -8.546875 Z M 4.703125 -2.546875 L 7.375 -2.546875 C 7.601562 -2.546875 7.796875 -2.628906 7.953125 -2.796875 C 8.109375 -2.960938 8.1875 -3.164062 8.1875 -3.40625 L 8.1875 -3.5625 C 8.1875 -3.8125 8.109375 -4.015625 7.953125 -4.171875 C 7.796875 -4.335938 7.601562 -4.421875 7.375 -4.421875 L 4.703125 -4.421875 Z M 4.703125 -2.546875 "/></g></g></g><g fill="#ffffff" fill-opacity="1"><g transform="translate(69.395805, 57.898317)"><g><path d="M 7.046875 0 L 6.84375 -1.28125 C 6.519531 -0.820312 6.085938 -0.460938 5.546875 -0.203125 C 5.015625 0.0546875 4.453125 0.1875 3.859375 0.1875 C 2.878906 0.1875 2.144531 -0.0820312 1.65625 -0.625 C 1.164062 -1.164062 0.921875 -1.945312 0.921875 -2.96875 L 0.921875 -8.40625 L 4.09375 -8.40625 L 4.09375 -3.34375 C 4.09375 -2.976562 4.1875 -2.6875 4.375 -2.46875 C 4.5625 -2.257812 4.820312 -2.15625 5.15625 -2.15625 C 5.550781 -2.15625 5.867188 -2.28125 6.109375 -2.53125 C 6.359375 -2.78125 6.484375 -3.09375 6.484375 -3.46875 L 6.484375 -8.40625 L 9.65625 -8.40625 L 9.65625 0 Z M 7.046875 0 "/></g></g></g><g fill="#ffffff" fill-opacity="1"><g transform="translate(80.018036, 57.898317)"><g><path d="M 1.0625 -9.390625 L 1.0625 -11.546875 L 4.234375 -11.546875 L 4.234375 -9.390625 Z M 1.0625 0 L 1.0625 -8.40625 L 4.234375 -8.40625 L 4.234375 0 Z M 1.0625 0 "/></g></g></g><g fill="#ffffff" fill-opacity="1"><g transform="translate(85.321187, 57.898317)"><g><path d="M 1.0625 0 L 1.0625 -11.546875 L 4.234375 -11.546875 L 4.234375 0 Z M 1.0625 0 "/></g></g></g><g fill="#ffffff" fill-opacity="1"><g transform="translate(90.624338, 57.898317)"><g><path d="M 6.5625 -8.40625 L 6.5625 -6.25 L 4.78125 -6.25 L 4.78125 -3.0625 C 4.78125 -2.675781 4.84375 -2.394531 4.96875 -2.21875 C 5.09375 -2.039062 5.328125 -1.953125 5.671875 -1.953125 L 6.5625 -1.953125 L 6.5625 -0.09375 C 6.300781 -0.0078125 5.96875 0.0546875 5.5625 0.109375 C 5.164062 0.160156 4.816406 0.1875 4.515625 0.1875 C 3.585938 0.1875 2.867188 0.0195312 2.359375 -0.3125 C 1.859375 -0.65625 1.609375 -1.234375 1.609375 -2.046875 L 1.609375 -6.25 L 0.4375 -6.25 L 0.4375 -8.40625 L 1.734375 -8.40625 L 2.421875 -10.953125 L 4.78125 -10.953125 L 4.78125 -8.40625 Z M 6.5625 -8.40625 "/></g></g></g><path fill="#ffffff" d="M 101 65.910156 L 101.496094 65.910156 L 101.496094 66.960938 L 101.996094 66.960938 L 101.996094 67.9375 L 101.003906 67.9375 L 101.003906 66.960938 L 100.503906 66.960938 L 100.503906 65.972656 L 100.007812 65.972656 L 100.007812 65.480469 L 99.511719 65.480469 L 99.511719 65.972656 L 99.011719 65.972656 L 99.011719 66.46875 L 98.515625 66.46875 L 98.515625 66.960938 L 98.015625 66.960938 L 98.015625 59.75 L 98.511719 59.75 L 98.511719 60.242188 L 99.011719 60.242188 L 99.011719 60.734375 L 99.507812 60.734375 L 99.507812 61.230469 L 100.003906 61.230469 L 100.003906 61.722656 L 100.503906 61.722656 L 100.503906 62.214844 L 101 62.214844 L 101 62.707031 L 101.496094 62.707031 L 101.496094 63.203125 L 101.996094 63.203125 L 101.996094 63.695312 L 102.492188 63.695312 L 102.492188 64.1875 L 102.988281 64.1875 L 102.988281 64.921875 L 101 64.921875 Z M 101 65.910156 " fill-opacity="1" fill-rule="nonzero"/><g clip-path="url(#b388855f45)"><path fill="#171514" d="M 98.511719 60.242188 L 98.511719 59.75 L 99.011719 59.75 L 99.011719 60.242188 Z M 99.507812 60.734375 L 99.507812 60.242188 L 99.011719 60.242188 L 99.011719 60.734375 Z M 100.007812 61.230469 L 100.007812 60.734375 L 99.507812 60.734375 L 99.507812 61.230469 Z M 100.503906 61.722656 L 100.503906 61.230469 L 100.007812 61.230469 L 100.007812 61.722656 Z M 101 62.214844 L 101 61.722656 L 100.503906 61.722656 L 100.503906 62.214844 Z M 101.5 62.710938 L 101.5 62.214844 L 101 62.214844 L 101 62.710938 Z M 101.996094 67.941406 L 101.003906 67.941406 L 101.003906 66.960938 L 100.503906 66.960938 L 100.503906 67.945312 L 101 67.945312 L 101 68.433594 L 101.996094 68.433594 L 101.996094 67.949219 L 102.492188 67.949219 L 102.492188 66.960938 L 101.996094 66.960938 Z M 100.503906 65.972656 L 100.007812 65.972656 L 100.007812 66.960938 L 100.503906 66.960938 Z M 99.511719 65.480469 L 99.511719 65.972656 L 100.007812 65.972656 L 100.007812 65.480469 Z M 99.011719 66.46875 L 99.511719 66.46875 L 99.511719 65.972656 L 99.011719 65.972656 Z M 98.515625 66.960938 L 99.011719 66.960938 L 99.011719 66.46875 L 98.515625 66.46875 Z M 101.996094 66.960938 L 101.996094 65.910156 L 101.496094 65.910156 L 101.496094 66.960938 Z M 101.996094 63.203125 L 101.996094 62.707031 L 101.496094 62.707031 L 101.496094 63.203125 Z M 102.492188 63.695312 L 102.492188 63.203125 L 101.996094 63.203125 L 101.996094 63.695312 Z M 102.988281 64.1875 L 102.988281 63.695312 L 102.492188 63.695312 L 102.492188 64.1875 Z M 102.988281 64.1875 L 102.988281 64.921875 L 101 64.921875 L 101 65.910156 L 101.496094 65.910156 L 101.496094 65.417969 L 103.488281 65.417969 L 103.488281 64.1875 Z M 98.015625 59.75 L 98.511719 59.75 L 98.511719 59.253906 L 98.015625 59.253906 L 98.015625 58.726562 L 97.519531 58.726562 L 97.519531 67.453125 L 98.515625 67.453125 L 98.515625 66.960938 L 98.015625 66.960938 Z M 98.015625 59.75 " fill-opacity="1" fill-rule="nonzero"/></g></svg>