<svg xmlns="http://www.w3.org/2000/svg" xmlns:xlink="http://www.w3.org/1999/xlink" width="150" zoomAndPan="magnify" viewBox="0 0 112.5 112.499997" height="150" preserveAspectRatio="xMidYMid meet" version="1.0"><defs><clipPath id="1e85012353"><path d="M 0 0 L 112.003906 0 L 112.003906 112.003906 L 0 112.003906 Z M 0 0 " clip-rule="nonzero"/></clipPath><clipPath id="7644955502"><path d="M 0 0 L 112.003906 0 L 112.003906 112.003906 L 0 112.003906 Z M 0 0 " clip-rule="nonzero"/></clipPath><clipPath id="71fa555b7f"><path d="M 56 0 C 25.074219 0 0 25.074219 0 56 C 0 86.929688 25.074219 112.003906 56 112.003906 C 86.929688 112.003906 112.003906 86.929688 112.003906 56 C 112.003906 25.074219 86.929688 0 56 0 Z M 56 0 " clip-rule="nonzero"/></clipPath></defs><g clip-path="url(#1e85012353)"><path fill="#ffffff" d="M 0 0 L 112.003906 0 L 112.003906 112.003906 L 0 112.003906 Z M 0 0 " fill-opacity="1" fill-rule="nonzero"/><path fill="#ffffff" d="M 0 0 L 112.003906 0 L 112.003906 112.003906 L 0 112.003906 Z M 0 0 " fill-opacity="1" fill-rule="nonzero"/></g><g clip-path="url(#7644955502)"><g clip-path="url(#71fa555b7f)"><path fill="#cf3535" d="M 0 0 L 112.003906 0 L 112.003906 112.003906 L 0 112.003906 Z M 0 0 " fill-opacity="1" fill-rule="nonzero"/></g></g><path fill="#ffffff" d="M 62.777344 56.015625 L 83.054688 35.738281 C 84.921875 33.871094 84.925781 30.839844 83.058594 28.976562 C 81.195312 27.113281 78.164062 27.109375 76.292969 28.976562 L 56.015625 49.253906 L 35.738281 28.976562 C 33.871094 27.113281 30.84375 27.109375 28.976562 28.976562 C 27.113281 30.835938 27.109375 33.871094 28.976562 35.738281 L 49.257812 56.015625 L 28.976562 76.292969 C 27.113281 78.160156 27.109375 81.191406 28.976562 83.058594 C 30.839844 84.917969 33.871094 84.921875 35.738281 83.054688 L 56.015625 62.777344 L 76.292969 83.054688 C 78.160156 84.917969 81.191406 84.921875 83.058594 83.058594 C 84.921875 81.195312 84.921875 78.160156 83.054688 76.292969 Z M 62.777344 56.015625 " fill-opacity="1" fill-rule="evenodd"/></svg>